<svg xmlns="http://www.w3.org/2000/svg" xmlns:xlink="http://www.w3.org/1999/xlink" width="500" zoomAndPan="magnify" viewBox="0 0 375 374.999991" height="500" preserveAspectRatio="xMidYMid meet" version="1.0"><defs><clipPath id="58ae17fcec"><path d="M 173 225 L 205 225 L 205 257.78125 L 173 257.78125 Z M 173 225 " clip-rule="nonzero"/></clipPath><clipPath id="8f3ad2951a"><path d="M 124.261719 117.53125 L 250.789062 117.53125 L 250.789062 254.386719 L 124.261719 254.386719 Z M 124.261719 117.53125 " clip-rule="nonzero"/></clipPath></defs><path fill="#f6b737" d="M 224.757812 180.679688 C 222.742188 189.542969 218.191406 196.992188 212.242188 203.734375 C 209.210938 207.167969 206.058594 210.570312 203.878906 214.640625 C 202.742188 216.765625 201.914062 219.039062 201.394531 221.390625 C 200.875 223.746094 201.003906 226.097656 200.652344 228.453125 C 200.058594 232.476562 196.25 233.128906 192.8125 233.109375 C 187.945312 233.078125 183.074219 232.585938 178.296875 231.65625 C 177.882812 231.816406 177.320312 231.6875 177.246094 231.183594 C 176.90625 228.902344 176.574219 226.617188 176.117188 224.359375 C 175.175781 219.695312 173.636719 215.191406 170.683594 211.40625 C 168.039062 208.015625 164.734375 205.222656 161.855469 202.050781 C 156.304688 195.933594 153.109375 188.011719 152.429688 179.804688 C 151.8125 172.347656 153.3125 164.554688 157.238281 158.136719 C 161.425781 151.300781 168.1875 146.890625 175.757812 144.601562 C 184.109375 142.078125 193.675781 141.335938 202.304688 142.53125 C 210.601562 143.675781 218.902344 147.660156 222.867188 155.414062 C 226.757812 163.019531 226.613281 172.527344 224.757812 180.679688 " fill-opacity="1" fill-rule="nonzero"/><path fill="#f59a3d" d="M 200.609375 207.871094 C 197.542969 206.78125 197.023438 202.417969 194.144531 205.625 C 193.835938 205.96875 191.210938 219.6875 191.371094 220.308594 C 193.742188 229.355469 205.238281 209.515625 200.609375 207.871094 Z M 196.914062 151.492188 C 198.6875 150.476562 204.5625 151.265625 205.984375 149.195312 C 208.246094 145.902344 203.179688 144.625 200.664062 144.332031 C 193.25 143.464844 194.234375 153.027344 196.914062 151.492188 Z M 220.882812 165.605469 C 220.902344 176.859375 217.199219 190.617188 209.582031 199.207031 C 207.378906 201.683594 202.914062 205.933594 200.089844 202.027344 C 198.46875 199.789062 200.644531 189.007812 200.554688 186.421875 C 200.324219 179.609375 198.804688 173.128906 198.027344 166.398438 C 197.378906 160.792969 198.1875 158.976562 203.402344 156.726562 C 213.164062 152.507812 220.867188 153.324219 220.882812 165.605469 " fill-opacity="1" fill-rule="nonzero"/><g clip-path="url(#58ae17fcec)"><path fill="#f59a3d" d="M 204.335938 240.777344 C 204.242188 242.875 203.019531 244.941406 200.996094 245.332031 C 201.714844 247.371094 200.574219 249.550781 198.820312 250.796875 C 198.867188 252.71875 198.375 254.476562 196.695312 255.789062 C 194.769531 257.292969 192.15625 257.734375 189.773438 257.753906 C 186.382812 257.777344 179.097656 256.164062 179.414062 251.710938 C 178.253906 251.421875 177.113281 250.992188 176.257812 250.183594 C 175.371094 249.34375 174.945312 248.148438 175.445312 246.984375 C 175.777344 246.210938 176.367188 245.695312 177.050781 245.304688 C 175.042969 244.386719 173.40625 242.78125 173.097656 240.445312 C 172.832031 238.433594 173.894531 236.484375 175.679688 235.695312 C 174.148438 233.878906 172.765625 231.800781 173.046875 229.320312 C 173.230469 227.695312 174.285156 226.300781 175.738281 225.769531 C 175.820312 225.625 175.964844 225.523438 176.160156 225.546875 C 176.261719 225.558594 176.363281 225.570312 176.460938 225.582031 C 176.742188 225.539062 177.03125 225.527344 177.332031 225.546875 C 177.511719 225.5625 177.65625 225.632812 177.761719 225.734375 C 180.855469 226.082031 183.957031 226.308594 187.070312 226.28125 C 190.625 226.246094 194.066406 225.746094 197.585938 225.359375 C 199.921875 225.105469 202.558594 225.710938 203.246094 228.273438 C 203.847656 230.523438 203.214844 232.859375 201.941406 234.734375 C 203.609375 236.253906 204.4375 238.5 204.335938 240.777344 " fill-opacity="1" fill-rule="nonzero"/></g><g clip-path="url(#8f3ad2951a)"><path fill="#2e2e30" d="M 197.722656 251.300781 C 195.304688 252.964844 192.632812 253.109375 189.78125 253.101562 C 186.621094 253.097656 183.71875 252.660156 180.671875 251.855469 C 180.222656 251.734375 179.914062 252.398438 180.347656 252.625 C 183.332031 254.164062 187.039062 254.179688 190.320312 254.207031 C 193.050781 254.234375 196.292969 254.1875 198.328125 252.085938 C 198.707031 251.695312 198.203125 250.96875 197.722656 251.300781 Z M 199.582031 244.84375 C 197.925781 245.070312 196.304688 245.703125 194.648438 246.007812 C 192.855469 246.335938 191.035156 246.527344 189.210938 246.582031 C 185.675781 246.6875 182.1875 246.199219 178.75 245.375 C 178.148438 245.230469 177.902344 246.128906 178.496094 246.308594 C 182.054688 247.386719 185.78125 247.828125 189.492188 247.75 C 192.816406 247.6875 197.03125 247.449219 200.023438 245.890625 C 200.652344 245.5625 200.171875 244.761719 199.582031 244.84375 Z M 189.246094 237.324219 C 192.675781 237.15625 196.867188 237 200.019531 235.550781 C 200.449219 235.351562 200.238281 234.617188 199.777344 234.652344 C 198.113281 234.777344 196.472656 235.316406 194.824219 235.589844 C 192.882812 235.910156 190.921875 236.132812 188.957031 236.222656 C 185.261719 236.386719 181.703125 235.882812 178.035156 235.644531 C 177.515625 235.609375 177.425781 236.410156 177.914062 236.539062 C 181.507812 237.507812 185.554688 237.507812 189.246094 237.324219 Z M 206.820312 179.308594 C 206.761719 179.003906 206.355469 178.789062 205.734375 178.738281 C 205.648438 178.730469 205.558594 178.722656 205.46875 178.722656 C 204.070312 178.722656 202.65625 179.648438 201.695312 180.601562 C 202.371094 180.839844 203.074219 180.960938 203.746094 180.960938 C 204.527344 180.960938 205.234375 180.796875 205.847656 180.472656 C 206.601562 180.074219 206.882812 179.601562 206.820312 179.308594 Z M 198.460938 180.914062 L 198.410156 180.898438 L 198.375 180.867188 C 197.964844 180.519531 197.585938 180.132812 197.242188 179.714844 C 196.644531 179 196.132812 178.171875 195.714844 177.25 C 194.671875 177.96875 193.480469 178.347656 192.253906 178.347656 C 190.328125 178.347656 188.492188 177.402344 187.273438 175.800781 C 185.84375 177.605469 184.113281 178.589844 182.359375 178.589844 C 181.71875 178.589844 181.078125 178.460938 180.449219 178.199219 C 180.222656 179.433594 179.9375 180.433594 179.5625 181.324219 C 179.484375 181.503906 179.359375 181.71875 179.226562 181.953125 C 179.042969 182.261719 178.742188 182.78125 178.765625 182.957031 C 178.792969 183.214844 179.289062 183.792969 179.652344 184.214844 C 179.964844 184.582031 180.265625 184.929688 180.414062 185.210938 C 180.847656 186.015625 181.226562 186.9375 181.574219 188.03125 C 182.867188 192.136719 183.085938 196.589844 183.1875 200.441406 C 183.296875 204.640625 183.191406 208.917969 183.085938 213.054688 C 183.0625 214.019531 183.035156 214.984375 183.015625 215.945312 C 182.960938 218.355469 182.890625 220.859375 182.804688 223.390625 C 182.796875 223.535156 182.804688 223.796875 182.8125 224.128906 C 182.820312 224.5 182.824219 224.875 182.828125 225.238281 C 184.800781 225.339844 186.773438 225.421875 188.765625 225.375 C 191.203125 225.320312 193.609375 225.09375 196.019531 224.832031 C 195.816406 223.734375 195.78125 222.277344 195.773438 220.804688 C 195.773438 220.390625 195.773438 220.027344 195.761719 219.8125 C 195.476562 215.089844 195.476562 209.988281 195.753906 203.75 C 195.808594 202.589844 195.851562 201.421875 195.894531 200.253906 C 196.039062 196.445312 196.191406 192.507812 196.621094 188.691406 C 196.78125 187.289062 196.976562 186.160156 197.234375 185.144531 C 197.316406 184.820312 197.492188 184.347656 197.699219 183.800781 C 198 183.015625 198.699219 181.175781 198.460938 180.914062 Z M 179.0625 174.746094 C 179.082031 174.617188 179.101562 174.488281 179.121094 174.351562 C 179.371094 172.628906 179.75 170.027344 179.039062 168.800781 C 178.8125 168.40625 178.492188 168.171875 178.175781 168.171875 C 177.945312 168.171875 177.714844 168.296875 177.496094 168.539062 C 177.015625 169.070312 177.3125 170.253906 177.492188 170.960938 L 177.53125 171.109375 C 177.90625 172.628906 178.410156 173.824219 179.0625 174.746094 Z M 187.523438 171.957031 C 188.113281 170.96875 188.761719 169.808594 188.867188 168.734375 C 188.917969 168.269531 188.75 167.503906 188.457031 167.179688 C 188.386719 167.097656 188.316406 167.058594 188.253906 167.058594 C 188.191406 167.058594 188.019531 167.097656 187.753906 167.464844 C 186.90625 168.621094 187.117188 170.445312 187.523438 171.957031 Z M 196.621094 173.703125 C 198.046875 171.875 198.679688 170.410156 198.503906 169.351562 C 198.398438 168.714844 197.832031 168.15625 197.289062 168.15625 C 196.851562 168.15625 196.621094 168.535156 196.507812 168.855469 C 196.125 169.925781 196.164062 171.554688 196.621094 173.703125 Z M 175.621094 183.160156 C 175.261719 183.035156 174.882812 182.972656 174.503906 182.972656 C 173.789062 182.972656 173.160156 183.195312 172.695312 183.613281 C 173.019531 183.765625 173.359375 183.84375 173.714844 183.84375 C 174.449219 183.84375 175.113281 183.515625 175.621094 183.160156 Z M 208.625 179.015625 C 208.792969 180.398438 207.742188 182.164062 205.46875 182.71875 C 204.972656 182.839844 204.433594 182.902344 203.871094 182.902344 C 203.511719 182.902344 203.136719 182.878906 202.757812 182.828125 C 202.523438 182.796875 202.136719 182.652344 201.691406 182.484375 C 201.253906 182.320312 200.65625 182.097656 200.441406 182.097656 C 199.949219 182.234375 199.269531 183.371094 198.769531 187.988281 L 198.734375 188.269531 C 197.496094 199.035156 197.167969 209.933594 197.765625 220.667969 C 197.769531 220.777344 197.800781 221.023438 197.839844 221.335938 C 197.972656 222.460938 198.097656 223.636719 198.097656 224.601562 C 198.519531 224.554688 198.941406 224.507812 199.363281 224.460938 C 200.03125 224.386719 200.167969 225.5 199.519531 225.621094 C 196 226.277344 192.339844 226.484375 188.765625 226.554688 C 185.210938 226.621094 181.511719 226.597656 178.003906 225.976562 C 177.453125 225.875 177.597656 224.996094 178.132812 225.015625 C 179 225.042969 179.863281 225.085938 180.722656 225.128906 C 180.730469 223.355469 180.84375 220.902344 181.058594 217.582031 C 181.117188 216.691406 181.164062 215.984375 181.167969 215.679688 C 181.242188 211.59375 181.308594 206.777344 181.242188 202.015625 C 181.183594 197.96875 180.96875 193.652344 179.78125 189.523438 C 179.742188 189.390625 179.699219 189.222656 179.648438 189.03125 C 179.324219 187.828125 178.566406 185.011719 177.585938 184.597656 C 177.585938 184.597656 177.566406 184.589844 177.515625 184.589844 C 177.226562 184.589844 176.628906 184.839844 176.050781 185.078125 C 175.214844 185.425781 174.265625 185.820312 173.519531 185.820312 C 173.464844 185.820312 173.414062 185.820312 173.359375 185.816406 C 172.285156 185.730469 170.882812 185.285156 170.472656 184.316406 C 170.300781 183.914062 170.242188 183.265625 170.929688 182.429688 C 171.722656 181.464844 172.933594 180.933594 174.339844 180.933594 C 174.492188 180.933594 174.640625 180.941406 174.789062 180.953125 C 175.117188 180.980469 175.507812 181.136719 175.882812 181.289062 C 176.238281 181.429688 176.609375 181.582031 176.835938 181.582031 C 176.851562 181.582031 176.863281 181.578125 176.878906 181.578125 C 177.335938 181.527344 177.601562 180.855469 177.855469 180.210938 L 178.007812 179.832031 C 178.253906 179.226562 178.589844 178.398438 178.589844 177.808594 C 178.589844 177.035156 178.429688 176.847656 178.046875 176.394531 C 177.90625 176.222656 177.742188 176.027344 177.550781 175.761719 C 176.46875 174.25 174.796875 170.425781 175.640625 168.023438 C 175.96875 167.089844 176.636719 166.480469 177.625 166.207031 C 177.925781 166.121094 178.210938 166.078125 178.476562 166.078125 C 179.113281 166.078125 179.652344 166.3125 180.078125 166.769531 C 181.316406 168.097656 181.257812 170.996094 181.179688 172.183594 C 181.160156 172.460938 181.070312 172.9375 180.964844 173.496094 C 180.8125 174.308594 180.496094 176 180.667969 176.277344 C 180.96875 176.703125 181.546875 176.792969 181.984375 176.792969 C 182.839844 176.792969 183.863281 176.445312 184.359375 176.109375 C 184.960938 175.703125 185.679688 175.046875 185.917969 174.507812 C 186.191406 173.894531 186.066406 173.488281 185.882812 172.878906 C 185.804688 172.625 185.71875 172.335938 185.652344 172 C 185.226562 169.804688 185.367188 168.070312 186.078125 166.84375 C 186.589844 165.960938 187.59375 165.070312 188.679688 165.070312 C 189.101562 165.070312 189.5 165.203125 189.863281 165.460938 C 191.449219 166.59375 190.875 169.023438 190.554688 170.015625 C 190.410156 170.46875 189.980469 171.132812 189.53125 171.835938 C 189.015625 172.632812 188.3125 173.726562 188.347656 174.132812 C 188.421875 174.980469 190.230469 176.09375 191.140625 176.351562 C 191.429688 176.433594 191.808594 176.476562 192.207031 176.476562 C 193.441406 176.476562 194.84375 176.0625 195.007812 175.148438 C 195.113281 174.546875 194.890625 173.710938 194.679688 172.902344 C 194.496094 172.203125 194.304688 171.480469 194.304688 170.851562 C 194.304688 169.84375 194.636719 168.679688 195.195312 167.742188 C 195.835938 166.664062 196.664062 166.070312 197.519531 166.070312 C 198.300781 166.070312 199.042969 166.546875 199.726562 167.484375 C 200.699219 168.816406 200.636719 170.644531 199.554688 172.78125 L 198.1875 174.855469 C 198.046875 175.039062 197.917969 175.1875 197.808594 175.3125 C 197.339844 175.851562 197.3125 175.882812 197.648438 176.804688 C 197.960938 177.648438 198.664062 178.46875 199.054688 178.878906 C 199.277344 179.113281 199.648438 179.503906 199.773438 179.503906 C 199.832031 179.503906 199.96875 179.414062 200.125 179.304688 C 200.25 179.21875 200.398438 179.117188 200.585938 179.007812 C 200.953125 178.789062 201.292969 178.554688 201.621094 178.328125 C 202.574219 177.675781 203.476562 177.058594 204.851562 176.878906 C 205.117188 176.847656 205.375 176.828125 205.621094 176.828125 C 207.644531 176.828125 208.5 177.957031 208.625 179.015625 Z M 234.707031 215.101562 C 232.707031 213.441406 230.539062 211.996094 228.542969 210.320312 C 226.632812 208.71875 224.902344 206.863281 222.894531 205.386719 C 222.257812 204.914062 221.363281 205.839844 221.804688 206.476562 C 223.277344 208.585938 225.359375 210.292969 227.335938 211.914062 C 229.328125 213.546875 231.414062 215.214844 233.714844 216.386719 C 234.496094 216.785156 235.464844 215.726562 234.707031 215.101562 Z M 250.355469 196.160156 C 247.816406 194.304688 244.941406 192.875 242.164062 191.417969 C 239.613281 190.082031 236.710938 188.113281 233.839844 187.65625 C 233.0625 187.53125 232.253906 188.488281 232.984375 189.132812 C 235.183594 191.070312 238.382812 192.121094 240.980469 193.445312 C 243.789062 194.875 246.527344 196.511719 249.425781 197.75 C 250.511719 198.214844 251.324219 196.871094 250.355469 196.160156 Z M 235.503906 158.671875 C 237.953125 158.28125 240.355469 157.425781 242.730469 156.734375 C 245.109375 156.039062 247.585938 155.457031 249.882812 154.527344 C 250.90625 154.117188 250.535156 152.667969 249.425781 152.867188 C 246.890625 153.320312 244.386719 154.1875 241.914062 154.894531 C 239.550781 155.574219 237.113281 156.144531 234.847656 157.109375 C 233.886719 157.515625 234.632812 158.816406 235.503906 158.671875 Z M 227.230469 127.046875 C 227.847656 126.191406 226.445312 125.40625 225.828125 126.226562 C 224.085938 128.535156 222.300781 130.816406 220.476562 133.0625 C 218.820312 135.097656 216.953125 137.042969 215.484375 139.222656 C 214.953125 140.011719 216.101562 140.796875 216.753906 140.203125 C 218.835938 138.292969 220.5625 135.855469 222.296875 133.636719 C 223.988281 131.472656 225.628906 129.273438 227.230469 127.046875 Z M 188.765625 135.09375 C 189.113281 132.382812 188.65625 129.4375 188.601562 126.699219 C 188.539062 123.902344 188.566406 121.101562 188.542969 118.304688 C 188.535156 117.261719 187.019531 117.285156 186.945312 118.304688 C 186.734375 121.195312 186.691406 124.101562 186.707031 127 C 186.71875 129.683594 186.511719 132.695312 187.15625 135.3125 C 187.398438 136.285156 188.65625 135.945312 188.765625 135.09375 Z M 151.097656 138.707031 C 149.410156 136.488281 147.808594 134.0625 145.894531 132.03125 C 145.238281 131.332031 144.085938 132.230469 144.574219 133.050781 C 146.0625 135.554688 148.035156 137.855469 149.78125 140.179688 C 151.445312 142.394531 153.011719 144.914062 155.003906 146.84375 C 155.679688 147.5 156.734375 146.671875 156.292969 145.847656 C 154.933594 143.304688 152.839844 141 151.097656 138.707031 Z M 141.003906 168.882812 C 142.867188 169.117188 144.828125 169.503906 146.703125 169.335938 C 147.71875 169.242188 147.984375 167.847656 146.949219 167.519531 C 145.339844 167.011719 143.574219 166.929688 141.902344 166.722656 C 139.902344 166.472656 137.90625 166.210938 135.910156 165.929688 C 132.335938 165.425781 128.765625 164.753906 125.175781 164.355469 C 124.105469 164.238281 123.910156 165.957031 124.925781 166.214844 C 128.519531 167.128906 132.246094 167.640625 135.914062 168.183594 C 137.605469 168.4375 139.304688 168.667969 141.003906 168.882812 Z M 149.53125 199.386719 C 147.207031 200.980469 144.617188 202.195312 142.195312 203.628906 C 139.949219 204.957031 137.675781 206.90625 135.230469 207.792969 C 134.414062 208.09375 133.953125 206.996094 134.441406 206.4375 C 135.355469 205.40625 136.664062 204.707031 137.8125 203.96875 C 139.003906 203.203125 140.203125 202.460938 141.421875 201.738281 C 143.816406 200.320312 146.265625 198.820312 148.90625 197.902344 C 149.828125 197.582031 150.238281 198.898438 149.53125 199.386719 " fill-opacity="1" fill-rule="nonzero"/></g><path fill="#f59a3d" d="M 163.265625 189.734375 C 162.839844 188.527344 162.683594 187.289062 162 186.195312 C 161.832031 185.929688 161.425781 185.980469 161.332031 186.285156 C 160.570312 188.789062 161.671875 191.824219 162.929688 194.007812 C 163.957031 195.804688 165.589844 198.730469 167.832031 198.988281 C 168.105469 199.019531 168.359375 198.726562 168.351562 198.46875 C 168.300781 196.445312 166.042969 194.753906 165.011719 193.15625 C 164.316406 192.082031 163.691406 190.941406 163.265625 189.734375 Z M 170.554688 157.972656 C 167.527344 159.828125 165.378906 162.828125 164.066406 166.089844 C 162.496094 169.992188 162.621094 174.082031 161.671875 178.101562 C 161.449219 179.039062 159.855469 179.121094 159.691406 178.101562 C 158.988281 173.722656 160.042969 168.65625 161.792969 164.632812 C 163.375 160.996094 165.964844 157.988281 169.46875 156.113281 C 170.6875 155.457031 171.734375 157.246094 170.554688 157.972656 " fill-opacity="1" fill-rule="nonzero"/></svg>